<svg width="566" height="475" xmlns="http://www.w3.org/2000/svg" xmlns:xlink="http://www.w3.org/1999/xlink" xml:space="preserve" overflow="hidden"><g transform="translate(-356 -122)"><g><g><g><g><path d="M85.1212 383.503 85.1212 347.437C85.1212 342.698 88.0837 338.891 92.9903 338.891L94.3481 338.891C99.2526 338.891 102.202 342.702 102.202 347.437L102.202 423.366C102.202 441.882 93.0542 456.615 77.1132 466.001 69.811 470.328 61.4754 472.6 52.9878 472.58L49.5998 472.58C31.0798 472.58 16.3665 463.426 6.9654 447.496 2.63297 440.196 0.359933 431.857 0.387946 423.366L0.387946 419.983C0.387946 401.461 9.53996 386.736 25.4678 377.333 32.7687 372.997 41.1089 370.725 49.5998 370.753L52.9878 370.753C65.5211 370.753 76.1543 375.612 85.1212 383.503ZM17.4664 421.671C17.4664 435.047 23.9491 445.102 35.669 451.517 40.4081 454.109 45.5528 455.502 50.9598 455.502 64.0883 455.502 73.8266 449.308 80.543 438.183 83.6664 433.008 85.1212 427.345 85.1212 421.325 85.1212 409.731 79.6326 400.683 70.2888 393.962 64.6239 389.888 58.2471 387.845 51.2927 387.845 36.9828 387.845 26.6845 395.075 20.5039 407.917 18.4186 412.259 17.4664 416.868 17.4664 421.671ZM161.456 370.753 163.824 370.753C183.613 370.753 198.664 380.353 208.202 397.627 212.015 404.538 214.056 412.081 214.056 419.983L214.056 423.366C214.056 441.882 204.926 456.635 188.961 466.003 181.57 470.339 173.405 472.58 164.84 472.58L161.456 472.58C142.936 472.58 128.218 463.426 118.822 447.496 114.487 440.196 112.212 431.857 112.238 423.366L112.238 419.983C112.238 401.458 121.427 386.783 137.315 377.337 144.702 372.949 152.873 370.753 161.456 370.753ZM129.318 421.671C129.318 434.654 135.689 444.205 146.655 450.922 151.804 454.074 157.475 455.502 163.491 455.502 176.319 455.502 185.802 448.997 192.402 438.17 195.549 433.008 196.973 427.336 196.973 421.325 196.973 409.253 191.158 400.03 181.217 393.347 175.771 389.681 169.707 387.845 163.147 387.845 148.837 387.845 138.539 395.075 132.36 407.917 130.271 412.259 129.318 416.868 129.318 421.671ZM285.061 389.209C282.482 388.002 277.655 387.6 274.869 387.495 260.599 386.957 250.274 394.993 244.217 407.582 242.125 411.924 241.17 416.52 241.17 421.325 241.17 435.955 248.852 446.198 261.91 452.443 266.68 454.722 272.839 455.154 278.052 455.154 282.637 455.154 289.117 452.346 293.186 450.412L293.891 450.077 297.05 450.077 297.398 450.148C301.282 450.957 304.214 453.419 304.214 457.598L304.214 459.289C304.214 469.689 285.209 472.069 277.957 472.576 252.366 474.346 233.226 460.292 225.93 435.882 224.663 431.643 224.092 427.433 224.092 423.016L224.092 419.637C224.092 401.115 233.284 386.443 249.17 377.007 256.556 372.62 264.725 370.416 273.306 370.416L276.692 370.416C285.795 370.416 294.18 373.002 301.697 378.135L302.314 378.563 302.704 379.207C303.515 380.551 304.214 382.107 304.214 383.708L304.214 385.398C304.214 389.758 300.952 392.104 297.015 392.862L296.689 392.919 295.679 392.919C293.131 392.919 287.336 390.281 285.061 389.209ZM340.463 400.775C347.097 394.132 353.754 387.501 360.488 380.968 362.364 379.145 369.468 371.43 372.265 371.43L375.325 371.43 375.673 371.503C379.57 372.312 382.489 374.778 382.489 378.966L382.489 380.655C382.489 383.512 379.143 386.831 377.298 388.786 373.374 392.946 369.243 396.968 365.227 401.042L344.591 421.991C353.477 430.896 362.353 439.808 371.166 448.781 373.61 451.259 376.035 453.754 378.442 456.267 379.29 457.16 380.542 458.271 381.254 459.507 382.019 460.667 382.489 461.974 382.489 463.369L382.489 465.132 382.39 465.54C381.431 469.437 378.958 472.58 374.639 472.58L373.279 472.58C370.454 472.58 367.262 469.384 365.327 467.557 361.337 463.797 357.486 459.842 353.576 456L340.463 443.127 340.463 463.702C340.463 468.441 337.496 472.25 332.596 472.25L331.251 472.25C326.344 472.25 323.382 468.441 323.382 463.702L323.382 347.768C323.382 343.028 326.347 339.237 331.251 339.237L332.596 339.237C337.496 339.237 340.463 343.028 340.463 347.768L340.463 400.775ZM553.342 371.43 555.039 371.43C560.162 371.43 563.58 374.882 563.58 379.976 563.58 387.047 556.82 388.857 550.972 388.857 543.301 388.857 535.977 393.501 530.689 398.71 524.096 405.21 521.21 413.535 521.21 422.687L521.21 464.037C521.21 468.776 518.25 472.58 513.341 472.58L511.992 472.58C507.083 472.58 504.125 468.778 504.125 464.037L504.125 420.314C504.125 403.524 512.299 389.818 525.925 380.205 534.061 374.463 543.381 371.432 553.342 371.432ZM431.945 453.375C438.161 455.546 445.248 455.235 451.625 454.124 454.887 452.738 463.228 449.099 466.296 449.632L466.774 449.714 467.215 449.93C469.089 450.838 470.877 452.123 471.833 454.03 474.068 458.498 472.995 462.99 468.604 465.527L467.143 466.371C450.941 475.721 433.709 474.425 417.558 465.692 409.837 461.517 403.929 455.321 399.572 447.767L398.553 446.002C388.151 427.989 389.556 409.041 401.286 391.912 405.336 385.991 410.628 381.417 416.815 377.84L419.156 376.489C434.414 367.681 450.767 368.285 466.437 376.015 474.864 380.172 481.691 386.368 486.394 394.517L487.241 395.985C490.657 401.906 486.231 407.064 481.662 410.591 476.359 414.682 471.004 419.606 465.921 423.992 454.587 433.777 443.271 443.584 431.945 453.375ZM417.276 443.072C429.95 432.205 442.629 421.327 455.271 410.414 459.591 406.689 464.328 402.823 468.613 398.906 465.174 394.572 459.43 391.449 454.55 389.586 444.697 385.833 434.983 387.093 425.948 392.309 414.122 399.137 409.085 410.011 409.526 423.543 409.702 428.873 411.135 434.008 413.963 438.543 414.959 440.141 416.073 441.642 417.276 443.072ZM325.099 100.804 375.501 100.804 375.501 152.328 400.984 152.328C412.755 152.328 424.859 150.232 436.003 146.456 441.481 144.598 447.626 142.015 453.029 138.764 445.914 129.475 442.281 117.746 441.214 106.185 439.759 90.4576 442.933 69.9891 453.576 57.6806L458.874 51.5528 465.187 56.6292C481.082 69.3983 494.451 87.2439 496.807 107.587 515.947 101.957 538.419 103.289 555.288 113.025L562.209 117.019 558.568 124.13C544.3 151.974 514.47 160.601 485.308 159.073 441.67 267.762 346.665 319.218 231.474 319.218 171.959 319.218 117.36 296.971 86.2674 244.17L85.7582 243.311 81.2285 234.093C70.7187 210.851 67.2271 185.39 69.5945 159.949L70.3065 152.328 113.408 152.328 113.408 100.804 163.808 100.804 163.808 50.4022 264.615 50.4022 264.615 0 325.099 0 325.099 100.804" fill="#364548" fill-rule="evenodd" fill-opacity="1" transform="matrix(1.00127 0 0 1 357 123.044)"/><path d="M488.394 119.867C491.773 93.6009 472.118 72.9714 459.928 63.1758 445.88 79.4166 443.698 121.98 465.736 139.901 453.437 150.825 427.521 160.727 400.984 160.727L77.964 160.727C75.385 188.427 80.2476 213.937 91.3548 235.77L95.0292 242.493C97.3558 246.439 99.8982 250.254 102.645 253.92 115.925 254.773 128.17 255.066 139.372 254.819L139.376 254.819C161.39 254.334 179.352 251.733 192.966 247.016 195.013 246.379 197.189 247.523 197.825 249.569 198.433 251.524 197.419 253.616 195.507 254.347 193.695 254.978 191.809 255.564 189.86 256.122L189.853 256.122C179.134 259.183 167.639 261.242 152.809 262.157 153.691 262.172 151.892 262.289 151.888 262.289 151.383 262.322 150.748 262.395 150.241 262.422 144.404 262.75 138.105 262.818 131.664 262.818 124.619 262.818 117.682 262.686 109.925 262.289L109.727 262.422C136.641 292.672 178.724 310.816 231.476 310.816 343.117 310.816 437.811 261.326 479.744 150.221 509.493 153.274 538.084 145.687 551.089 120.299 530.373 108.345 503.733 112.156 488.394 119.867" fill="#22A0C8" fill-rule="evenodd" fill-opacity="1" transform="matrix(1.00127 0 0 1 357 123.044)"/><path d="M488.394 119.867C491.773 93.6009 472.118 72.9714 459.928 63.1758 445.88 79.4166 443.698 121.98 465.736 139.901 453.437 150.825 427.521 160.727 400.984 160.727L97.0924 160.727C95.7743 203.149 111.517 235.351 139.37 254.819L139.376 254.819C161.39 254.334 179.352 251.733 192.966 247.016 195.013 246.379 197.189 247.523 197.825 249.569 198.433 251.524 197.419 253.616 195.507 254.347 193.695 254.978 191.809 255.564 189.86 256.122L189.853 256.122C179.134 259.183 166.652 261.507 151.822 262.422 151.817 262.422 151.462 262.08 151.458 262.08 189.452 281.57 244.543 281.499 307.705 257.237 378.528 230.028 444.432 178.193 490.415 118.906 489.723 119.219 489.048 119.538 488.394 119.867" fill="#37B1D9" fill-rule="evenodd" fill-opacity="1" transform="matrix(1.00127 0 0 1 357 123.044)"/><path d="M78.5702 194.383C80.576 209.222 84.9184 223.115 91.3548 235.77L95.0292 242.493C97.3554 246.439 99.898 250.254 102.645 253.92 115.928 254.773 128.172 255.066 139.376 254.819 161.39 254.334 179.352 251.733 192.966 247.016 195.013 246.379 197.189 247.523 197.825 249.569 198.433 251.524 197.419 253.616 195.507 254.347 193.695 254.978 191.809 255.564 189.86 256.122L189.853 256.122C179.134 259.183 166.718 261.375 151.888 262.291 151.378 262.322 150.49 262.329 149.977 262.358 144.144 262.684 137.908 262.884 131.465 262.884 124.423 262.884 117.219 262.75 109.467 262.355 136.381 292.606 178.724 310.816 231.476 310.816 327.052 310.816 410.205 274.538 458.467 194.383L78.5702 194.383" fill="#1B81A5" fill-rule="evenodd" fill-opacity="1" transform="matrix(1.00127 0 0 1 357 123.044)"/><path d="M99.9998 194.383C105.713 220.437 119.443 240.89 139.376 254.819 161.39 254.334 179.352 251.733 192.966 247.016 195.013 246.379 197.189 247.523 197.825 249.569 198.433 251.524 197.419 253.616 195.507 254.347 193.695 254.978 191.809 255.564 189.86 256.122L189.853 256.122C179.134 259.183 166.455 261.375 151.623 262.291 189.615 281.777 244.547 281.497 307.705 257.237 345.914 242.557 382.687 220.704 415.678 194.383L99.9998 194.383" fill="#1D91B4" fill-rule="evenodd" fill-opacity="1" transform="matrix(1.00127 0 0 1 357 123.044)"/><path d="M121.806 109.205 165.49 109.205 165.49 152.888 121.806 152.888 121.806 109.205ZM125.446 112.846 128.893 112.846 128.893 149.249 125.446 149.249 125.446 112.846ZM131.926 112.846 135.512 112.846 135.512 149.249 131.928 149.249 131.928 112.846ZM138.543 112.846 142.129 112.846 142.129 149.249 138.543 149.249 138.543 112.846ZM145.165 112.846 148.749 112.846 148.749 149.249 145.165 149.249 145.165 112.846ZM151.784 112.846 155.368 112.846 155.368 149.249 151.784 149.249 151.784 112.846ZM158.401 112.846 161.851 112.846 161.851 149.249 158.401 149.249 158.401 112.846ZM172.209 58.8025 215.894 58.8025 215.894 102.484 172.206 102.484 172.206 58.8025ZM175.85 62.4439 179.295 62.4439 179.295 98.8448 175.85 98.8448 175.85 62.4439ZM182.33 62.4439 185.915 62.4439 185.915 98.8448 182.333 98.8448 182.333 62.4439ZM188.948 62.4439 192.532 62.4439 192.532 98.8448 188.948 98.8448 188.948 62.4439ZM195.567 62.4439 199.151 62.4439 199.151 98.8448 195.567 98.8448 195.567 62.4439ZM202.186 62.4439 205.773 62.4439 205.773 98.8448 202.186 98.8448 202.186 62.4439ZM208.803 62.4439 212.255 62.4439 212.255 98.8448 208.803 98.8448 208.803 62.4439Z" fill="#23A3C2" fill-rule="evenodd" fill-opacity="1" transform="matrix(1.00127 0 0 1 357 123.044)"/><path d="M172.209 109.205 215.894 109.205 215.894 152.888 172.206 152.888 172.206 109.205ZM175.85 112.846 179.295 112.846 179.295 149.249 175.85 149.249 175.85 112.846ZM182.33 112.846 185.915 112.846 185.915 149.249 182.333 149.249 182.333 112.846ZM188.948 112.846 192.532 112.846 192.532 149.249 188.948 149.249 188.948 112.846ZM195.567 112.846 199.151 112.846 199.151 149.249 195.567 149.249 195.567 112.846ZM202.186 112.846 205.773 112.846 205.773 149.249 202.186 149.249 202.186 112.846ZM208.803 112.846 212.255 112.846 212.255 149.249 208.803 149.249 208.803 112.846Z" fill="#34BBDE" fill-rule="evenodd" fill-opacity="1" transform="matrix(1.00127 0 0 1 357 123.044)"/><path d="M222.613 109.205 266.297 109.205 266.297 152.888 222.613 152.888 222.613 109.205ZM226.252 112.846 229.697 112.846 229.697 149.249 226.252 149.249 226.252 112.846ZM232.733 112.846 236.317 112.846 236.317 149.249 232.733 149.249 232.733 112.846ZM239.352 112.846 242.936 112.846 242.936 149.249 239.352 149.249 239.352 112.846ZM245.971 112.846 249.555 112.846 249.555 149.249 245.971 149.249 245.971 112.846ZM252.588 112.846 256.177 112.846 256.177 149.249 252.588 149.249 252.588 112.846ZM259.208 112.846 262.655 112.846 262.655 149.249 259.208 149.249 259.208 112.846Z" fill="#23A3C2" fill-rule="evenodd" fill-opacity="1" transform="matrix(1.00127 0 0 1 357 123.044)"/><path d="M222.613 58.8025 266.297 58.8025 266.297 102.484 222.613 102.484 222.613 58.8025ZM226.252 62.4439 229.697 62.4439 229.697 98.8448 226.252 98.8448 226.252 62.4439ZM232.733 62.4439 236.317 62.4439 236.317 98.8448 232.733 98.8448 232.733 62.4439ZM239.352 62.4439 242.936 62.4439 242.936 98.8448 239.352 98.8448 239.352 62.4439ZM245.971 62.4439 249.555 62.4439 249.555 98.8448 245.971 98.8448 245.971 62.4439ZM252.588 62.4439 256.177 62.4439 256.177 98.8448 252.588 98.8448 252.588 62.4439ZM259.208 62.4439 262.655 62.4439 262.655 98.8448 259.208 98.8448 259.208 62.4439ZM273.015 109.205 316.699 109.205 316.699 152.888 273.015 152.888 273.015 109.205ZM276.656 112.846 280.102 112.846 280.102 149.249 276.656 149.249 276.656 112.846ZM283.137 112.846 286.721 112.846 286.721 149.249 283.137 149.249 283.137 112.846ZM289.754 112.846 293.338 112.846 293.338 149.249 289.754 149.249 289.754 112.846ZM296.373 112.846 299.96 112.846 299.96 149.249 296.373 149.249 296.373 112.846ZM302.993 112.846 306.579 112.846 306.579 149.249 302.993 149.249 302.993 112.846ZM309.612 112.846 313.06 112.846 313.06 149.249 309.612 149.249 309.612 112.846Z" fill="#34BBDE" fill-rule="evenodd" fill-opacity="1" transform="matrix(1.00127 0 0 1 357 123.044)"/><path d="M273.015 58.8025 316.699 58.8025 316.699 102.484 273.015 102.484 273.015 58.8025ZM276.656 62.4439 280.102 62.4439 280.102 98.8448 276.656 98.8448 276.656 62.4439ZM283.137 62.4439 286.721 62.4439 286.721 98.8448 283.137 98.8448 283.137 62.4439ZM289.754 62.4439 293.338 62.4439 293.338 98.8448 289.754 98.8448 289.754 62.4439ZM296.373 62.4439 299.96 62.4439 299.96 98.8448 296.373 98.8448 296.373 62.4439ZM302.993 62.4439 306.579 62.4439 306.579 98.8448 302.993 98.8448 302.993 62.4439ZM309.612 62.4439 313.06 62.4439 313.06 98.8448 309.612 98.8448 309.612 62.4439Z" fill="#23A3C2" fill-rule="evenodd" fill-opacity="1" transform="matrix(1.00127 0 0 1 357 123.044)"/><path d="M273.015 8.39816 316.699 8.39816 316.699 52.0862 273.015 52.0862 273.015 8.39816ZM276.656 12.0374 280.102 12.0374 280.102 48.4426 276.656 48.4426 276.656 12.0352ZM283.137 12.0374 286.721 12.0374 286.721 48.4426 283.137 48.4426 283.137 12.0352ZM289.754 12.0374 293.338 12.0374 293.338 48.4426 289.754 48.4426 289.754 12.0352ZM296.373 12.0374 299.96 12.0374 299.96 48.4426 296.373 48.4426 296.373 12.0352ZM302.993 12.0374 306.579 12.0374 306.579 48.4426 302.993 48.4426 302.993 12.0352ZM309.612 12.0374 313.06 12.0374 313.06 48.4426 309.612 48.4426 309.612 12.0352Z" fill="#34BBDE" fill-rule="evenodd" fill-opacity="1" transform="matrix(1.00127 0 0 1 357 123.044)"/><path d="M323.417 109.205 367.101 109.205 367.101 152.888 323.417 152.888 323.417 109.205ZM327.054 112.846 330.504 112.846 330.504 149.249 327.056 149.249 327.056 112.846ZM333.535 112.846 337.121 112.846 337.121 149.249 333.537 149.249 333.537 112.846ZM340.156 112.846 343.743 112.846 343.743 149.249 340.156 149.249 340.156 112.846ZM346.773 112.846 350.36 112.846 350.36 149.249 346.773 149.249 346.773 112.846ZM353.395 112.846 356.979 112.846 356.979 149.249 353.395 149.249 353.395 112.846ZM360.012 112.846 363.46 112.846 363.46 149.249 360.012 149.249 360.012 112.846Z" fill="#23A3C2" fill-rule="evenodd" fill-opacity="1" transform="matrix(1.00127 0 0 1 357 123.044)"/><path d="M213.159 223.713C219.815 223.625 225.282 228.948 225.37 235.605 225.461 242.259 220.136 247.728 213.481 247.816 213.372 247.818 213.263 247.818 213.155 247.816 206.499 247.726 201.177 242.255 201.268 235.6 201.358 229.071 206.63 223.801 213.159 223.713" fill="#D3ECEC" fill-rule="evenodd" fill-opacity="1" transform="matrix(1.00127 0 0 1 357 123.044)"/><path d="M213.159 227.132C214.261 227.132 215.312 227.339 216.282 227.716 214.6 228.692 214.028 230.848 215.005 232.53 215.633 233.614 216.789 234.28 218.041 234.284 219.375 234.284 220.532 233.546 221.132 232.453 222.959 236.855 220.872 241.904 216.47 243.732 212.068 245.559 207.019 243.472 205.191 239.07 203.364 234.668 205.451 229.618 209.853 227.791 210.901 227.356 212.024 227.132 213.159 227.132M0 198.739 560.598 198.739C548.393 195.644 521.98 191.46 526.335 175.462 504.139 201.146 450.613 193.482 437.103 180.818 422.061 202.636 334.487 194.341 328.379 177.344 309.52 199.477 251.083 199.477 232.223 177.344 226.111 194.341 138.539 202.636 123.495 180.816 109.987 193.482 56.4638 201.146 34.2671 175.464 38.6227 191.46 12.2093 195.644 0 198.741" fill="#364548" fill-rule="evenodd" fill-opacity="1" transform="matrix(1.00127 0 0 1 357 123.044)"/><path d="M245.193 310.556C215.348 296.393 198.968 277.139 189.853 256.124 178.766 259.287 165.442 261.311 149.957 262.179 144.124 262.505 137.988 262.673 131.551 262.673 124.127 262.673 116.305 262.452 108.092 262.018 135.462 289.373 169.131 310.432 231.476 310.816 236.079 310.816 240.646 310.727 245.193 310.556" fill="#BDD9D7" fill-rule="evenodd" fill-opacity="1" transform="matrix(1.00127 0 0 1 357 123.044)"/><path d="M200.939 275.517C196.81 269.911 192.805 262.867 189.86 256.12 178.773 259.287 165.444 261.311 149.957 262.181 160.594 267.954 175.806 273.304 200.941 275.517" fill="#D3ECEC" fill-rule="evenodd" fill-opacity="1" transform="matrix(1.00127 0 0 1 357 123.044)"/></g></g></g></g></g></svg>